<?xml version="1.0" encoding="UTF-8"?>
<svg id="Camada_15" xmlns="http://www.w3.org/2000/svg" version="1.1" viewBox="0 0 402.53 113.36">
  <!-- Generator: Adobe Illustrator 29.2.1, SVG Export Plug-In . SVG Version: 2.1.0 Build 116)  -->
  <defs>
    <style>
      .st0 {
        fill: #fff;
      }

      .st1 {
        fill: #ff7336;
      }
    </style>
  </defs>
  <g>
    <path class="st0" d="M182.15,38.85h7.72c.57,0,1.02-.46,1.02-1.02v-2.46c0-2.22-1.8-4.02-4.02-4.02h-4.73c-.57,0-1.02.46-1.02,1.02v5.46c0,.57.46,1.02,1.02,1.02Z"/>
    <path class="st0" d="M173.54,32.38v6.29c0,.57-.46,1.03-1.03,1.03h-36.4v13.08h29.64c.57,0,1.03.46,1.03,1.03v5.76c0,.57-.46,1.03-1.03,1.03h-29.64v18.36c0,.57-.46,1.03-1.03,1.03h-7.94c-.57,0-1.03-.46-1.03-1.03v-46.58c0-.57.46-1.03,1.03-1.03h45.37c.57,0,1.03.46,1.03,1.03Z"/>
    <rect class="st0" x="181.13" y="42.62" width="9.77" height="37.36" rx="1.02" ry="1.02"/>
    <path class="st0" d="M201.69,42.62h7.73c.56,0,1.02.46,1.02,1.02v35.32c0,.56-.46,1.02-1.02,1.02h-7.73c-.56,0-1.02-.46-1.02-1.02v-35.32c0-.56.46-1.02,1.02-1.02ZM224.8,49.69c0,.55-.44.98-.99,1-2.39.11-4.49.65-6.3,1.59-2.06,1.08-3.71,2.39-4.96,3.95-1.25,1.55-2.13,3.06-2.63,4.51l-.08-4.13c.05-.6.25-1.49.6-2.67.35-1.18.88-2.45,1.58-3.83.7-1.38,1.63-2.71,2.78-3.98,1.15-1.28,2.56-2.32,4.21-3.12,1.38-.67,2.95-1.06,4.71-1.17.58-.04,1.08.45,1.08,1.03v6.82Z"/>
    <path class="st0" d="M265.52,67.58h7.57c.64,0,1.16.6,1,1.23-.52,2.06-1.5,3.93-2.94,5.61-1.73,2-4.07,3.58-7.03,4.74-2.96,1.15-6.57,1.73-10.82,1.73-4.76,0-8.97-.76-12.63-2.29-3.66-1.53-6.51-3.75-8.57-6.65-2.05-2.91-3.08-6.41-3.08-10.52s1-7.63,3.01-10.56c2-2.93,4.8-5.17,8.38-6.73,3.58-1.55,7.78-2.33,12.59-2.33s8.99.78,12.25,2.33c3.26,1.55,5.68,3.9,7.25,7.03,1.47,2.91,2.14,6.58,2.03,10.99-.01.55-.48,1-1.03,1h-34.64c.25,1.9.96,3.63,2.14,5.19,1.18,1.55,2.78,2.78,4.81,3.68,2.03.9,4.45,1.35,7.25,1.35,3.11,0,5.7-.54,7.78-1.62,1.83-.95,3.09-2.14,3.77-3.57.17-.36.5-.6.9-.6ZM252.54,49.24c-3.61,0-6.54.79-8.79,2.37-2.25,1.58-3.71,3.52-4.36,5.83h25.41c-.25-2.5-1.44-4.5-3.57-5.98-2.13-1.48-5.02-2.22-8.68-2.22Z"/>
    <path class="st0" d="M344.34,65.25c.62,0,1.12.55,1.03,1.16-.39,2.77-1.39,5.19-2.99,7.26-1.83,2.36-4.35,4.15-7.55,5.37-3.21,1.23-7.02,1.84-11.43,1.84s-8.73-.74-12.37-2.22c-3.63-1.48-6.49-3.66-8.57-6.54-2.08-2.88-3.12-6.45-3.12-10.71s1.04-7.84,3.12-10.75c2.08-2.91,4.94-5.11,8.57-6.61,3.63-1.5,7.75-2.26,12.37-2.26s8.19.62,11.35,1.84c3.16,1.23,5.65,3,7.48,5.3,1.61,2.02,2.62,4.42,3.05,7.17.1.61-.41,1.17-1.03,1.17h-7.08c-.42,0-.78-.27-.94-.65-.89-2.19-2.39-3.93-4.49-5.21-2.31-1.4-5.09-2.1-8.34-2.1-2.61,0-4.97.45-7.1,1.35-2.13.9-3.83,2.24-5.11,4.02-1.28,1.78-1.92,4.02-1.92,6.73s.63,4.87,1.88,6.65c1.25,1.78,2.96,3.11,5.11,3.98,2.15.88,4.53,1.32,7.14,1.32,3.51,0,6.38-.7,8.61-2.11,2.03-1.28,3.47-3.05,4.32-5.33.15-.4.52-.68.95-.68h7.07Z"/>
    <path class="st0" d="M387.42,67.58h7.56c.65,0,1.16.61,1.01,1.23-.52,2.06-1.5,3.93-2.94,5.61-1.73,2-4.07,3.58-7.03,4.74-2.96,1.15-6.57,1.73-10.82,1.73-4.76,0-8.97-.76-12.63-2.29-3.66-1.53-6.51-3.75-8.57-6.65-2.05-2.91-3.08-6.41-3.08-10.52s1-7.63,3.01-10.56c2-2.93,4.8-5.17,8.38-6.73,3.58-1.55,7.78-2.33,12.59-2.33s8.99.78,12.25,2.33c3.26,1.55,5.68,3.9,7.25,7.03,1.47,2.91,2.14,6.58,2.03,10.99-.01.55-.48,1-1.03,1h-34.64c.25,1.9.96,3.63,2.14,5.19,1.18,1.55,2.78,2.78,4.81,3.68,2.03.9,4.45,1.35,7.25,1.35,3.11,0,5.7-.54,7.78-1.62,1.83-.95,3.09-2.14,3.77-3.57.17-.36.51-.6.9-.6ZM374.44,49.24c-3.61,0-6.54.79-8.79,2.37-2.25,1.58-3.71,3.52-4.36,5.83h25.41c-.25-2.5-1.44-4.5-3.57-5.98-2.13-1.48-5.02-2.22-8.68-2.22Z"/>
  </g>
  <rect class="st1" x="284.95" y="23.5" width="3.73" height="63.66" rx=".41" ry=".41"/>
  <g>
    <path class="st1" d="M106.32,12.12l-4.67,22.76c-.01.06-.03.11-.04.17-1.74,5.84-5.92,10.64-11.86,11.86l-19.25,3.95-11.74,2.4c-6.93,1.43-13.32,4.87-18.34,9.89-.05.05-.1.11-.14.16l-30.93,39.42c-1.24,1.58-3.75.29-3.18-1.64h0s5.87-19.9,5.87-19.9l3.13-10.64,7.61-25.79c1.82-6.17,6.9-10.83,13.19-12.11l46.54-9.49c6.6-1.35,12.67-4.61,17.44-9.38l3.3-3.3c1.28-1.28,3.43-.12,3.07,1.65Z"/>
    <path class="st1" d="M92.82,59.05l-2.72,9.22c-1.31,4.44-5.19,7.63-9.79,8.06l-32.78,3.07c-2.02.19-3.16-2.25-1.73-3.68l9.71-9.71c2.04-2.04,4.63-3.43,7.46-4.01l27.43-5.59c1.55-.32,2.88,1.13,2.43,2.65Z"/>
  </g>
</svg>